<svg xmlns="http://www.w3.org/2000/svg" width="1200" height="630" viewBox="0 0 1200 630">
<defs><pattern id="dots" width="26" height="26" patternUnits="userSpaceOnUse"><circle cx="3" cy="3" r="2" fill="#f7efdf" opacity=".12"/></pattern></defs>
<rect width="1200" height="630" fill="#111521"/><path d="M0 0h220L0 178z" fill="#6de9e1"/><path d="M1200 0v178l-161-178z" fill="#ff675d"/>
<path d="M643 55h500l-32 520H665z" fill="#1d2632" stroke="#f7efdf" stroke-width="11"/><path d="M643 55h500l-32 520H665z" fill="url(#dots)"/>
<g transform="translate(625 45) scale(.52)"><path d="M504 776V506m0 0L352 402m152 104l172-137M352 402l-84-108m84 108l-65 121m389-154l89-114m-89 114l83 139" fill="none" stroke="#111521" stroke-width="80" stroke-linejoin="miter"/><path d="M504 776V506m0 0L352 402m152 104l172-137M352 402l-84-108m84 108l-65 121m389-154l89-114m-89 114l83 139" fill="none" stroke="#6de9e1" stroke-width="45" stroke-linejoin="miter"/><path d="M229 250l78-18 17 75-78 19zm480-46l91 11-10 84-91-12zm-477 291l87-22 21 84-87 19zm480-8l85 24-23 81-85-24z" fill="#f7efdf" stroke="#111521" stroke-width="15"/><circle cx="504" cy="506" r="35" fill="#ff675d" stroke="#111521" stroke-width="12"/><path d="M282 800h444" stroke="#ffdc69" stroke-width="12"/></g>
<path d="M77 103h472" stroke="#6de9e1" stroke-width="10"/><text x="77" y="185" fill="#6de9e1" font-family="Helvetica Neue, Arial, sans-serif" font-size="65" font-weight="900">duohertz</text><path d="M77 228h472" stroke="#ff675d" stroke-width="18"/>
<text x="77" y="345" fill="#f7efdf" font-family="Helvetica Neue, Arial, sans-serif" font-size="67" font-weight="900">Glowline</text><text x="77" y="429" fill="#f7efdf" font-family="Helvetica Neue, Arial, sans-serif" font-size="67" font-weight="900">Garden</text><path d="M77 490h472" stroke="#f7efdf" stroke-width="7"/><path d="M77 520h240" stroke="#6de9e1" stroke-width="17"/><path d="M0 601h1200" stroke="#f7efdf" stroke-width="7"/>
</svg>
