<svg xmlns="http://www.w3.org/2000/svg" width="512" height="512" viewBox="0 0 512 512">
  <defs>
    <pattern id="halftone" width="10" height="10" patternUnits="userSpaceOnUse">
      <circle cx="2.5" cy="2.5" r="1.5" fill="#8C8079" opacity="0.20"/>
    </pattern>
  </defs>
  <rect width="512" height="512" fill="#12100F"/>
  <rect width="512" height="512" fill="url(#halftone)"/>
  <g>
    <polygon points="256.0,-70.0 1016.0,-63.4 1000.7,81.5" fill="#8C8079" opacity="0.09"/>
    <polygon points="256.0,-70.0 998.0,94.5 953.0,233.0" fill="#8C8079" opacity="0.09"/>
    <polygon points="256.0,-70.0 947.6,245.2 874.7,371.3" fill="#8C8079" opacity="0.09"/>
    <polygon points="256.0,-70.0 866.9,382.1 769.4,490.3" fill="#8C8079" opacity="0.09"/>
    <polygon points="256.0,-70.0 759.6,499.2 641.7,584.8" fill="#8C8079" opacity="0.09"/>
    <polygon points="256.0,-70.0 630.2,591.5 497.2,650.7" fill="#8C8079" opacity="0.09"/>
    <polygon points="256.0,-70.0 484.5,654.8 342.0,685.1" fill="#8C8079" opacity="0.09"/>
    <polygon points="256.0,-70.0 328.8,686.5 183.2,686.5" fill="#8C8079" opacity="0.09"/>
    <polygon points="256.0,-70.0 170.0,685.1 27.5,654.8" fill="#8C8079" opacity="0.09"/>
    <polygon points="256.0,-70.0 14.8,650.7 -118.2,591.5" fill="#8C8079" opacity="0.09"/>
    <polygon points="256.0,-70.0 -129.7,584.8 -247.6,499.2" fill="#8C8079" opacity="0.09"/>
    <polygon points="256.0,-70.0 -257.4,490.3 -354.9,382.1" fill="#8C8079" opacity="0.09"/>
    <polygon points="256.0,-70.0 -362.7,371.3 -435.6,245.2" fill="#8C8079" opacity="0.09"/>
    <polygon points="256.0,-70.0 -441.0,233.0 -486.0,94.5" fill="#8C8079" opacity="0.09"/>
    <polygon points="256.0,-70.0 -488.7,81.5 -504.0,-63.4" fill="#8C8079" opacity="0.09"/>
  </g>
  <g opacity="0.9">
    <line x1="0" y1="0" x2="0" y2="512" stroke="#000000" stroke-opacity="0.20" stroke-width="1"/>
    <line x1="32" y1="0" x2="32" y2="512" stroke="#000000" stroke-opacity="0.12" stroke-width="1"/>
    <line x1="64" y1="0" x2="64" y2="512" stroke="#000000" stroke-opacity="0.20" stroke-width="1"/>
    <line x1="96" y1="0" x2="96" y2="512" stroke="#000000" stroke-opacity="0.12" stroke-width="1"/>
    <line x1="128" y1="0" x2="128" y2="512" stroke="#000000" stroke-opacity="0.20" stroke-width="1"/>
    <line x1="160" y1="0" x2="160" y2="512" stroke="#000000" stroke-opacity="0.12" stroke-width="1"/>
    <line x1="192" y1="0" x2="192" y2="512" stroke="#000000" stroke-opacity="0.20" stroke-width="1"/>
    <line x1="224" y1="0" x2="224" y2="512" stroke="#000000" stroke-opacity="0.12" stroke-width="1"/>
    <line x1="256" y1="0" x2="256" y2="512" stroke="#000000" stroke-opacity="0.20" stroke-width="1"/>
    <line x1="288" y1="0" x2="288" y2="512" stroke="#000000" stroke-opacity="0.12" stroke-width="1"/>
    <line x1="320" y1="0" x2="320" y2="512" stroke="#000000" stroke-opacity="0.20" stroke-width="1"/>
    <line x1="352" y1="0" x2="352" y2="512" stroke="#000000" stroke-opacity="0.12" stroke-width="1"/>
    <line x1="384" y1="0" x2="384" y2="512" stroke="#000000" stroke-opacity="0.20" stroke-width="1"/>
    <line x1="416" y1="0" x2="416" y2="512" stroke="#000000" stroke-opacity="0.12" stroke-width="1"/>
    <line x1="448" y1="0" x2="448" y2="512" stroke="#000000" stroke-opacity="0.20" stroke-width="1"/>
    <line x1="480" y1="0" x2="480" y2="512" stroke="#000000" stroke-opacity="0.12" stroke-width="1"/>
    <line x1="512" y1="0" x2="512" y2="512" stroke="#000000" stroke-opacity="0.20" stroke-width="1"/>
    <line x1="0" y1="0" x2="512" y2="0" stroke="#000000" stroke-opacity="0.20" stroke-width="1"/>
    <line x1="0" y1="32" x2="512" y2="32" stroke="#000000" stroke-opacity="0.12" stroke-width="1"/>
    <line x1="0" y1="64" x2="512" y2="64" stroke="#000000" stroke-opacity="0.20" stroke-width="1"/>
    <line x1="0" y1="96" x2="512" y2="96" stroke="#000000" stroke-opacity="0.12" stroke-width="1"/>
    <line x1="0" y1="128" x2="512" y2="128" stroke="#000000" stroke-opacity="0.20" stroke-width="1"/>
    <line x1="0" y1="160" x2="512" y2="160" stroke="#000000" stroke-opacity="0.12" stroke-width="1"/>
    <line x1="0" y1="192" x2="512" y2="192" stroke="#000000" stroke-opacity="0.20" stroke-width="1"/>
    <line x1="0" y1="224" x2="512" y2="224" stroke="#000000" stroke-opacity="0.12" stroke-width="1"/>
    <line x1="0" y1="256" x2="512" y2="256" stroke="#000000" stroke-opacity="0.20" stroke-width="1"/>
    <line x1="0" y1="288" x2="512" y2="288" stroke="#000000" stroke-opacity="0.12" stroke-width="1"/>
    <line x1="0" y1="320" x2="512" y2="320" stroke="#000000" stroke-opacity="0.20" stroke-width="1"/>
    <line x1="0" y1="352" x2="512" y2="352" stroke="#000000" stroke-opacity="0.12" stroke-width="1"/>
    <line x1="0" y1="384" x2="512" y2="384" stroke="#000000" stroke-opacity="0.20" stroke-width="1"/>
    <line x1="0" y1="416" x2="512" y2="416" stroke="#000000" stroke-opacity="0.12" stroke-width="1"/>
    <line x1="0" y1="448" x2="512" y2="448" stroke="#000000" stroke-opacity="0.20" stroke-width="1"/>
    <line x1="0" y1="480" x2="512" y2="480" stroke="#000000" stroke-opacity="0.12" stroke-width="1"/>
    <line x1="0" y1="512" x2="512" y2="512" stroke="#000000" stroke-opacity="0.20" stroke-width="1"/>
  </g>
  <g>
    <polygon points="282.3,133.9 342.1,246.3 229.7,306.1 169.9,193.7" fill="none" stroke="#8C8079" stroke-width="2" opacity="0.85"/>
    <polygon points="361.7,262.7 213.3,325.7 150.3,177.3 298.7,114.3" fill="none" stroke="#8C8079" stroke-width="2" opacity="0.75"/>
    <polygon points="267.0,309.3 166.7,231.0 245.0,130.7 345.3,209.0" fill="none" stroke="#8C8079" stroke-width="2" opacity="0.65"/>
    <polygon points="182.7,307.3 168.7,146.7 329.3,132.7 343.3,293.3" fill="none" stroke="#8C8079" stroke-width="2" opacity="0.55"/>
    <polygon points="173.8,256.6 219.4,137.8 338.2,183.4 292.6,302.2" fill="none" stroke="#8C8079" stroke-width="2" opacity="0.45"/>
    <polygon points="238.2,107.4 368.6,202.2 273.8,332.6 143.4,237.8" fill="none" stroke="#8C8079" stroke-width="2" opacity="0.35"/>
    <rect x="168" y="168" width="176" height="176" fill="none" stroke="#F5EFE6" stroke-width="2" opacity="0.2" transform="rotate(9 256 256)"/>
  </g>
  <g>
    <rect x="472.0" y="115.0" width="3.8" height="3.8" fill="#E23D3D" opacity="0.73" transform="rotate(36 472.0 115.0)"/>
    <rect x="318.0" y="25.0" width="5.0" height="5.0" fill="#F2E4C9" opacity="0.48" transform="rotate(12 318.0 25.0)"/>
    <rect x="27.0" y="315.0" width="5.5" height="5.5" fill="#FFB020" opacity="0.79" transform="rotate(7 27.0 315.0)"/>
    <rect x="306.0" y="202.0" width="4.6" height="4.6" fill="#5B8DEF" opacity="0.79" transform="rotate(34 306.0 202.0)"/>
    <rect x="66.0" y="272.0" width="6.3" height="6.3" fill="#E23D3D" opacity="0.56" transform="rotate(3 66.0 272.0)"/>
    <rect x="257.0" y="309.0" width="3.1" height="3.1" fill="#F2E4C9" opacity="0.72" transform="rotate(36 257.0 309.0)"/>
    <rect x="411.0" y="289.0" width="6.3" height="6.3" fill="#FFB020" opacity="0.72" transform="rotate(32 411.0 289.0)"/>
    <rect x="297.0" y="81.0" width="3.8" height="3.8" fill="#5B8DEF" opacity="0.80" transform="rotate(37 297.0 81.0)"/>
    <rect x="469.0" y="26.0" width="5.8" height="5.8" fill="#E23D3D" opacity="0.41" transform="rotate(16 469.0 26.0)"/>
  </g>
  <g>
    <polygon points="432.0,50.0 478.0,96.0 432.0,142.0 386.0,96.0" fill="none" stroke="#000000" stroke-width="6.4"/>
    <polygon points="432.0,62.9 465.1,96.0 432.0,129.1 398.9,96.0" fill="none" stroke="#8C8079" stroke-width="3.2"/>
    <polygon points="432.0,75.8 452.2,96.0 432.0,116.2 411.8,96.0" fill="#F5EFE6"/>
  </g>
  <polygon points="0,372 512,344 512,512 0,512" fill="#1C1717" stroke="#000000" stroke-width="4"/>
  <polygon points="0,372 512,344 512,352 0,380" fill="#8C8079"/>
  <text x="40" y="432" fill="#F5EFE6" font-family="Anton, Impact, Haettenschweiler, 'Arial Narrow', sans-serif" font-size="34" letter-spacing="0.01em" paint-order="stroke" stroke="#000000" stroke-width="5">Iron Boulevard</text>
  <text x="40" y="464" fill="#A8928B" font-family="IBM Plex Sans, system-ui, -apple-system, sans-serif" font-size="16" font-weight="500">Iron Echo</text>
  <text x="40" y="492" fill="#8C8079" font-family="IBM Plex Sans, system-ui, -apple-system, sans-serif" font-size="12" font-weight="700" letter-spacing="0.14em">CHROME YARD</text>
  <text x="462" y="46" text-anchor="end" fill="#F5EFE6" font-family="IBM Plex Sans, system-ui, -apple-system, sans-serif" font-size="14" font-weight="700" paint-order="stroke" stroke="#000000" stroke-width="4">142 BPM</text>
  <rect x="6" y="6" width="500" height="500" fill="none" stroke="#000000" stroke-width="12"/>
</svg>
