<svg xmlns="http://www.w3.org/2000/svg" width="512" height="512" viewBox="0 0 512 512">
  <defs>
    <pattern id="halftone" width="10" height="10" patternUnits="userSpaceOnUse">
      <circle cx="2.5" cy="2.5" r="1.5" fill="#6E2426" opacity="0.20"/>
    </pattern>
  </defs>
  <rect width="512" height="512" fill="#12100F"/>
  <rect width="512" height="512" fill="url(#halftone)"/>
  <g>
    <polygon points="256.0,-70.0 1016.0,-63.4 1000.7,81.5" fill="#6E2426" opacity="0.09"/>
    <polygon points="256.0,-70.0 998.0,94.5 953.0,233.0" fill="#6E2426" opacity="0.09"/>
    <polygon points="256.0,-70.0 947.6,245.2 874.7,371.3" fill="#6E2426" opacity="0.09"/>
    <polygon points="256.0,-70.0 866.9,382.1 769.4,490.3" fill="#6E2426" opacity="0.09"/>
    <polygon points="256.0,-70.0 759.6,499.2 641.7,584.8" fill="#6E2426" opacity="0.09"/>
    <polygon points="256.0,-70.0 630.2,591.5 497.2,650.7" fill="#6E2426" opacity="0.09"/>
    <polygon points="256.0,-70.0 484.5,654.8 342.0,685.1" fill="#6E2426" opacity="0.09"/>
    <polygon points="256.0,-70.0 328.8,686.5 183.2,686.5" fill="#6E2426" opacity="0.09"/>
    <polygon points="256.0,-70.0 170.0,685.1 27.5,654.8" fill="#6E2426" opacity="0.09"/>
    <polygon points="256.0,-70.0 14.8,650.7 -118.2,591.5" fill="#6E2426" opacity="0.09"/>
    <polygon points="256.0,-70.0 -129.7,584.8 -247.6,499.2" fill="#6E2426" opacity="0.09"/>
    <polygon points="256.0,-70.0 -257.4,490.3 -354.9,382.1" fill="#6E2426" opacity="0.09"/>
    <polygon points="256.0,-70.0 -362.7,371.3 -435.6,245.2" fill="#6E2426" opacity="0.09"/>
    <polygon points="256.0,-70.0 -441.0,233.0 -486.0,94.5" fill="#6E2426" opacity="0.09"/>
    <polygon points="256.0,-70.0 -488.7,81.5 -504.0,-63.4" fill="#6E2426" opacity="0.09"/>
  </g>
  <g opacity="0.9">
    <line x1="0" y1="0" x2="0" y2="512" stroke="#000000" stroke-opacity="0.20" stroke-width="1"/>
    <line x1="32" y1="0" x2="32" y2="512" stroke="#000000" stroke-opacity="0.12" stroke-width="1"/>
    <line x1="64" y1="0" x2="64" y2="512" stroke="#000000" stroke-opacity="0.20" stroke-width="1"/>
    <line x1="96" y1="0" x2="96" y2="512" stroke="#000000" stroke-opacity="0.12" stroke-width="1"/>
    <line x1="128" y1="0" x2="128" y2="512" stroke="#000000" stroke-opacity="0.20" stroke-width="1"/>
    <line x1="160" y1="0" x2="160" y2="512" stroke="#000000" stroke-opacity="0.12" stroke-width="1"/>
    <line x1="192" y1="0" x2="192" y2="512" stroke="#000000" stroke-opacity="0.20" stroke-width="1"/>
    <line x1="224" y1="0" x2="224" y2="512" stroke="#000000" stroke-opacity="0.12" stroke-width="1"/>
    <line x1="256" y1="0" x2="256" y2="512" stroke="#000000" stroke-opacity="0.20" stroke-width="1"/>
    <line x1="288" y1="0" x2="288" y2="512" stroke="#000000" stroke-opacity="0.12" stroke-width="1"/>
    <line x1="320" y1="0" x2="320" y2="512" stroke="#000000" stroke-opacity="0.20" stroke-width="1"/>
    <line x1="352" y1="0" x2="352" y2="512" stroke="#000000" stroke-opacity="0.12" stroke-width="1"/>
    <line x1="384" y1="0" x2="384" y2="512" stroke="#000000" stroke-opacity="0.20" stroke-width="1"/>
    <line x1="416" y1="0" x2="416" y2="512" stroke="#000000" stroke-opacity="0.12" stroke-width="1"/>
    <line x1="448" y1="0" x2="448" y2="512" stroke="#000000" stroke-opacity="0.20" stroke-width="1"/>
    <line x1="480" y1="0" x2="480" y2="512" stroke="#000000" stroke-opacity="0.12" stroke-width="1"/>
    <line x1="512" y1="0" x2="512" y2="512" stroke="#000000" stroke-opacity="0.20" stroke-width="1"/>
    <line x1="0" y1="0" x2="512" y2="0" stroke="#000000" stroke-opacity="0.20" stroke-width="1"/>
    <line x1="0" y1="32" x2="512" y2="32" stroke="#000000" stroke-opacity="0.12" stroke-width="1"/>
    <line x1="0" y1="64" x2="512" y2="64" stroke="#000000" stroke-opacity="0.20" stroke-width="1"/>
    <line x1="0" y1="96" x2="512" y2="96" stroke="#000000" stroke-opacity="0.12" stroke-width="1"/>
    <line x1="0" y1="128" x2="512" y2="128" stroke="#000000" stroke-opacity="0.20" stroke-width="1"/>
    <line x1="0" y1="160" x2="512" y2="160" stroke="#000000" stroke-opacity="0.12" stroke-width="1"/>
    <line x1="0" y1="192" x2="512" y2="192" stroke="#000000" stroke-opacity="0.20" stroke-width="1"/>
    <line x1="0" y1="224" x2="512" y2="224" stroke="#000000" stroke-opacity="0.12" stroke-width="1"/>
    <line x1="0" y1="256" x2="512" y2="256" stroke="#000000" stroke-opacity="0.20" stroke-width="1"/>
    <line x1="0" y1="288" x2="512" y2="288" stroke="#000000" stroke-opacity="0.12" stroke-width="1"/>
    <line x1="0" y1="320" x2="512" y2="320" stroke="#000000" stroke-opacity="0.20" stroke-width="1"/>
    <line x1="0" y1="352" x2="512" y2="352" stroke="#000000" stroke-opacity="0.12" stroke-width="1"/>
    <line x1="0" y1="384" x2="512" y2="384" stroke="#000000" stroke-opacity="0.20" stroke-width="1"/>
    <line x1="0" y1="416" x2="512" y2="416" stroke="#000000" stroke-opacity="0.12" stroke-width="1"/>
    <line x1="0" y1="448" x2="512" y2="448" stroke="#000000" stroke-opacity="0.20" stroke-width="1"/>
    <line x1="0" y1="480" x2="512" y2="480" stroke="#000000" stroke-opacity="0.12" stroke-width="1"/>
    <line x1="0" y1="512" x2="512" y2="512" stroke="#000000" stroke-opacity="0.20" stroke-width="1"/>
  </g>
  <g>
    <line x1="-48" y1="360" x2="256" y2="180" stroke="#6E2426" stroke-width="1.2" opacity="0.45"/>
    <line x1="-10" y1="360" x2="256" y2="180" stroke="#6E2426" stroke-width="1.2" opacity="0.45"/>
    <line x1="28" y1="360" x2="256" y2="180" stroke="#6E2426" stroke-width="1.2" opacity="0.45"/>
    <line x1="66" y1="360" x2="256" y2="180" stroke="#6E2426" stroke-width="1.2" opacity="0.45"/>
    <line x1="104" y1="360" x2="256" y2="180" stroke="#6E2426" stroke-width="1.2" opacity="0.45"/>
    <line x1="142" y1="360" x2="256" y2="180" stroke="#6E2426" stroke-width="1.2" opacity="0.45"/>
    <line x1="180" y1="360" x2="256" y2="180" stroke="#6E2426" stroke-width="1.2" opacity="0.45"/>
    <line x1="218" y1="360" x2="256" y2="180" stroke="#6E2426" stroke-width="1.2" opacity="0.45"/>
    <line x1="256" y1="360" x2="256" y2="180" stroke="#6E2426" stroke-width="1.2" opacity="0.45"/>
    <line x1="294" y1="360" x2="256" y2="180" stroke="#6E2426" stroke-width="1.2" opacity="0.45"/>
    <line x1="332" y1="360" x2="256" y2="180" stroke="#6E2426" stroke-width="1.2" opacity="0.45"/>
    <line x1="370" y1="360" x2="256" y2="180" stroke="#6E2426" stroke-width="1.2" opacity="0.45"/>
    <line x1="408" y1="360" x2="256" y2="180" stroke="#6E2426" stroke-width="1.2" opacity="0.45"/>
    <line x1="446" y1="360" x2="256" y2="180" stroke="#6E2426" stroke-width="1.2" opacity="0.45"/>
    <line x1="484" y1="360" x2="256" y2="180" stroke="#6E2426" stroke-width="1.2" opacity="0.45"/>
    <line x1="522" y1="360" x2="256" y2="180" stroke="#6E2426" stroke-width="1.2" opacity="0.45"/>
    <line x1="560" y1="360" x2="256" y2="180" stroke="#6E2426" stroke-width="1.2" opacity="0.45"/>
    <line x1="196" y1="200" x2="316" y2="200" stroke="#6E2426" stroke-width="1.5" opacity="0.70"/>
    <line x1="160" y1="228" x2="352" y2="228" stroke="#6E2426" stroke-width="1.5" opacity="0.62"/>
    <line x1="124" y1="256" x2="388" y2="256" stroke="#6E2426" stroke-width="1.5" opacity="0.54"/>
    <line x1="88" y1="284" x2="424" y2="284" stroke="#6E2426" stroke-width="1.5" opacity="0.46"/>
    <line x1="52" y1="312" x2="460" y2="312" stroke="#6E2426" stroke-width="1.5" opacity="0.38"/>
    <line x1="16" y1="340" x2="496" y2="340" stroke="#6E2426" stroke-width="1.5" opacity="0.30"/>
    <line x1="-20" y1="368" x2="532" y2="368" stroke="#6E2426" stroke-width="1.5" opacity="0.22"/>
    <circle cx="256" cy="180" r="6" fill="#6E2426" opacity="0.9"/>
  </g>
  <g>
    <rect x="331.0" y="76.0" width="4.0" height="4.0" fill="#E23D3D" opacity="0.70" transform="rotate(19 331.0 76.0)"/>
    <rect x="447.0" y="407.0" width="4.2" height="4.2" fill="#F2E4C9" opacity="0.65" transform="rotate(22 447.0 407.0)"/>
    <rect x="284.0" y="233.0" width="4.4" height="4.4" fill="#FFB020" opacity="0.61" transform="rotate(26 284.0 233.0)"/>
    <rect x="88.0" y="257.0" width="5.2" height="5.2" fill="#5B8DEF" opacity="0.79" transform="rotate(8 88.0 257.0)"/>
    <rect x="243.0" y="354.0" width="5.3" height="5.3" fill="#E23D3D" opacity="0.52" transform="rotate(39 243.0 354.0)"/>
    <rect x="42.0" y="346.0" width="6.4" height="6.4" fill="#F2E4C9" opacity="0.51" transform="rotate(22 42.0 346.0)"/>
  </g>
  <g>
    <polygon points="432.0,50.0 478.0,96.0 432.0,142.0 386.0,96.0" fill="none" stroke="#000000" stroke-width="6.4"/>
    <polygon points="432.0,62.9 465.1,96.0 432.0,129.1 398.9,96.0" fill="none" stroke="#6E2426" stroke-width="3.2"/>
    <polygon points="432.0,75.8 452.2,96.0 432.0,116.2 411.8,96.0" fill="#F5EFE6"/>
  </g>
  <polygon points="0,372 512,344 512,512 0,512" fill="#1C1717" stroke="#000000" stroke-width="4"/>
  <polygon points="0,372 512,344 512,352 0,380" fill="#6E2426"/>
  <text x="40" y="432" fill="#F5EFE6" font-family="Anton, Impact, Haettenschweiler, 'Arial Narrow', sans-serif" font-size="34" letter-spacing="0.01em" paint-order="stroke" stroke="#000000" stroke-width="5">Scape Sings Low</text>
  <text x="40" y="464" fill="#A8928B" font-family="IBM Plex Sans, system-ui, -apple-system, sans-serif" font-size="16" font-weight="500">Subline</text>
  <text x="40" y="492" fill="#6E2426" font-family="IBM Plex Sans, system-ui, -apple-system, sans-serif" font-size="12" font-weight="700" letter-spacing="0.14em">NIGHT GRID</text>
  <text x="462" y="46" text-anchor="end" fill="#F5EFE6" font-family="IBM Plex Sans, system-ui, -apple-system, sans-serif" font-size="14" font-weight="700" paint-order="stroke" stroke="#000000" stroke-width="4">96 BPM</text>
  <rect x="6" y="6" width="500" height="500" fill="none" stroke="#000000" stroke-width="12"/>
</svg>
